<svg width="1200" height="760" viewBox="0 0 1200 760" fill="none" xmlns="http://www.w3.org/2000/svg">
  <defs>
    <linearGradient id="bgB" x1="0" y1="0" x2="1200" y2="760" gradientUnits="userSpaceOnUse">
      <stop offset="0" stop-color="#EEF5FF"/>
      <stop offset="1" stop-color="#FFF6E6"/>
    </linearGradient>
  </defs>
  <rect width="1200" height="760" rx="40" fill="url(#bgB)"/>
  <rect x="200" y="420" width="800" height="42" rx="16" fill="#1E2D5A" opacity="0.12"/>
  <rect x="300" y="250" width="600" height="180" rx="20" fill="#1E2D5A"/>
  <rect x="324" y="274" width="552" height="132" rx="10" fill="#FFFFFF"/>
  <rect x="360" y="304" width="220" height="78" rx="10" fill="#F2FBFF"/>
  <rect x="620" y="304" width="220" height="10" rx="5" fill="#2ABFBF"/>
  <rect x="620" y="326" width="170" height="10" rx="5" fill="#1E2D5A" opacity="0.35"/>
  <rect x="620" y="348" width="196" height="10" rx="5" fill="#FF6B6B"/>
  <circle cx="420" cy="343" r="22" fill="#FFD166"/>
  <rect x="394" y="367" width="52" height="18" rx="9" fill="#2ABFBF"/>
  <circle cx="500" cy="343" r="22" fill="#FFD166"/>
  <rect x="474" y="367" width="52" height="18" rx="9" fill="#A78BFA"/>
  <rect x="350" y="480" width="130" height="56" rx="14" fill="#FFFFFF"/>
  <rect x="500" y="480" width="130" height="56" rx="14" fill="#FFFFFF"/>
  <rect x="650" y="480" width="130" height="56" rx="14" fill="#FFFFFF"/>
</svg>
