<svg width="1000" height="700" viewBox="0 0 1000 700" fill="none" xmlns="http://www.w3.org/2000/svg">
  <rect width="1000" height="700" rx="32" fill="#F7FFFE"/>
  <rect x="80" y="90" width="840" height="520" rx="24" fill="#1E2D5A"/>
  <rect x="120" y="130" width="280" height="440" rx="16" fill="#FFFFFF"/>
  <rect x="430" y="130" width="450" height="140" rx="16" fill="#FFFFFF"/>
  <rect x="430" y="290" width="210" height="280" rx="16" fill="#FFFFFF"/>
  <rect x="670" y="290" width="210" height="280" rx="16" fill="#FFFFFF"/>
  <rect x="150" y="170" width="220" height="12" rx="6" fill="#2ABFBF"/>
  <rect x="150" y="194" width="180" height="12" rx="6" fill="#A78BFA"/>
  <rect x="150" y="230" width="220" height="110" rx="14" fill="#EEF5FF"/>
  <rect x="150" y="360" width="220" height="16" rx="8" fill="#FFD166"/>
  <rect x="150" y="392" width="180" height="12" rx="6" fill="#1E2D5A" opacity="0.35"/>
  <rect x="460" y="170" width="390" height="16" rx="8" fill="#2ABFBF"/>
  <rect x="460" y="200" width="300" height="12" rx="6" fill="#1E2D5A" opacity="0.35"/>
  <rect x="460" y="330" width="150" height="12" rx="6" fill="#FF6B6B"/>
  <rect x="460" y="356" width="120" height="12" rx="6" fill="#1E2D5A" opacity="0.35"/>
  <rect x="700" y="330" width="150" height="96" rx="12" fill="#EEF5FF"/>
  <rect x="700" y="440" width="120" height="12" rx="6" fill="#2ABFBF"/>
</svg>
